<mxfile host="Electron" modified="2023-10-21T02:28:52.455Z" agent="Mozilla/5.0 (Windows NT 10.0; Win64; x64) AppleWebKit/537.36 (KHTML, like Gecko) draw.io/21.2.8 Chrome/112.0.5615.165 Electron/24.2.0 Safari/537.36" etag="p7gqnymUmScPN-taF-dP" version="21.2.8" type="device">
  <diagram name="Page-1" id="4jEeTd7mvgLUH5QwcUFO">
    <mxGraphModel dx="1649" dy="621" grid="1" gridSize="10" guides="1" tooltips="1" connect="1" arrows="1" fold="1" page="1" pageScale="1" pageWidth="827" pageHeight="1169" math="0" shadow="0">
      <root>
        <mxCell id="0" />
        <mxCell id="1" parent="0" />
        <mxCell id="FmmOy0Gf5pX21H7wCrZ3-1" value="" style="rounded=1;whiteSpace=wrap;html=1;fillColor=#e1d5e7;strokeColor=#272527;strokeWidth=2;" parent="1" vertex="1">
          <mxGeometry x="120" y="119" width="530" height="150" as="geometry" />
        </mxCell>
        <mxCell id="FmmOy0Gf5pX21H7wCrZ3-2" value="&lt;font face=&quot;Times New Roman&quot; style=&quot;font-size: 16px;&quot;&gt;&amp;nbsp; &amp;nbsp; &amp;nbsp; &lt;font style=&quot;font-size: 16px;&quot;&gt;Partition1&lt;/font&gt;&lt;/font&gt;" style="rounded=1;whiteSpace=wrap;html=1;fillColor=#d5e8d4;strokeColor=#000000;align=left;strokeWidth=2;" parent="1" vertex="1">
          <mxGeometry x="155" y="179" width="460" height="60" as="geometry" />
        </mxCell>
        <mxCell id="FmmOy0Gf5pX21H7wCrZ3-3" value="&lt;font size=&quot;1&quot; style=&quot;&quot; face=&quot;Times New Roman&quot;&gt;&lt;b style=&quot;font-size: 16px;&quot;&gt;BUFFER_MEMORY_CONFIG&lt;/b&gt;&lt;/font&gt;" style="text;html=1;align=center;verticalAlign=middle;resizable=0;points=[];autosize=1;strokeColor=none;fillColor=none;" parent="1" vertex="1">
          <mxGeometry x="265" y="129" width="240" height="30" as="geometry" />
        </mxCell>
        <mxCell id="FmmOy0Gf5pX21H7wCrZ3-5" value="&lt;font face=&quot;Times New Roman&quot; style=&quot;font-size: 15px;&quot;&gt;Batch&lt;/font&gt;" style="ellipse;whiteSpace=wrap;html=1;aspect=fixed;fillColor=#fff2cc;strokeColor=#0d0d0c;strokeWidth=2;" parent="1" vertex="1">
          <mxGeometry x="356" y="179" width="60" height="60" as="geometry" />
        </mxCell>
        <mxCell id="FmmOy0Gf5pX21H7wCrZ3-6" value="" style="rounded=1;whiteSpace=wrap;html=1;fillColor=#ffe6cc;strokeColor=#0d0d0c;strokeWidth=2;" parent="1" vertex="1">
          <mxGeometry x="120" y="321" width="530" height="241" as="geometry" />
        </mxCell>
        <mxCell id="FmmOy0Gf5pX21H7wCrZ3-7" value="&lt;font face=&quot;Times New Roman&quot; style=&quot;font-size: 16px;&quot;&gt;&amp;nbsp; &amp;nbsp; &amp;nbsp;free&lt;/font&gt;" style="rounded=1;whiteSpace=wrap;html=1;align=left;fillColor=#dae8fc;strokeColor=#000000;strokeWidth=2;" parent="1" vertex="1">
          <mxGeometry x="155" y="381" width="460" height="60" as="geometry" />
        </mxCell>
        <mxCell id="FmmOy0Gf5pX21H7wCrZ3-8" value="&lt;b&gt;&lt;font style=&quot;font-size: 16px;&quot; face=&quot;Times New Roman&quot;&gt;BufferPool&lt;/font&gt;&lt;/b&gt;" style="text;html=1;align=center;verticalAlign=middle;resizable=0;points=[];autosize=1;strokeColor=none;fillColor=none;" parent="1" vertex="1">
          <mxGeometry x="335" y="331" width="100" height="30" as="geometry" />
        </mxCell>
        <mxCell id="FmmOy0Gf5pX21H7wCrZ3-10" value="&lt;font face=&quot;Times New Roman&quot; style=&quot;font-size: 16px;&quot;&gt;Buffer&lt;/font&gt;" style="ellipse;whiteSpace=wrap;html=1;aspect=fixed;fillColor=#fff2cc;strokeColor=#000000;strokeWidth=2;" parent="1" vertex="1">
          <mxGeometry x="251" y="381" width="60" height="60" as="geometry" />
        </mxCell>
        <mxCell id="FmmOy0Gf5pX21H7wCrZ3-13" value="&lt;b&gt;&lt;font style=&quot;font-size: 16px;&quot; face=&quot;Times New Roman&quot;&gt;availableMemory&lt;/font&gt;&lt;/b&gt;" style="rounded=1;whiteSpace=wrap;html=1;fillColor=#f8cecc;strokeColor=#000000;strokeWidth=2;" parent="1" vertex="1">
          <mxGeometry x="156" y="472" width="460" height="60" as="geometry" />
        </mxCell>
        <mxCell id="FmmOy0Gf5pX21H7wCrZ3-14" value="&lt;font face=&quot;Times New Roman&quot; style=&quot;font-size: 16px;&quot;&gt;Buffer&lt;/font&gt;" style="ellipse;whiteSpace=wrap;html=1;aspect=fixed;fillColor=#fff2cc;strokeColor=#000000;strokeWidth=2;" parent="1" vertex="1">
          <mxGeometry x="356" y="381" width="60" height="60" as="geometry" />
        </mxCell>
        <mxCell id="FmmOy0Gf5pX21H7wCrZ3-15" value="&lt;font face=&quot;Times New Roman&quot; style=&quot;font-size: 16px;&quot;&gt;Buffer&lt;/font&gt;" style="ellipse;whiteSpace=wrap;html=1;aspect=fixed;fillColor=#fff2cc;strokeColor=#000000;strokeWidth=2;" parent="1" vertex="1">
          <mxGeometry x="461" y="381" width="60" height="60" as="geometry" />
        </mxCell>
        <mxCell id="FmmOy0Gf5pX21H7wCrZ3-16" value="&lt;font face=&quot;Times New Roman&quot; style=&quot;font-size: 16px;&quot;&gt;&lt;b&gt;Producer&lt;/b&gt;&lt;/font&gt;" style="rounded=1;whiteSpace=wrap;html=1;fillColor=#f8cecc;strokeColor=#000000;strokeWidth=2;" parent="1" vertex="1">
          <mxGeometry x="-85" y="183.5" width="110" height="51" as="geometry" />
        </mxCell>
        <mxCell id="FmmOy0Gf5pX21H7wCrZ3-17" value="" style="endArrow=classic;html=1;rounded=0;exitX=1;exitY=0.5;exitDx=0;exitDy=0;entryX=0;entryY=0.5;entryDx=0;entryDy=0;strokeWidth=2;" parent="1" source="FmmOy0Gf5pX21H7wCrZ3-16" target="FmmOy0Gf5pX21H7wCrZ3-2" edge="1">
          <mxGeometry width="50" height="50" relative="1" as="geometry">
            <mxPoint x="160" y="340" as="sourcePoint" />
            <mxPoint x="210" y="290" as="targetPoint" />
          </mxGeometry>
        </mxCell>
        <mxCell id="FmmOy0Gf5pX21H7wCrZ3-19" value="&lt;font face=&quot;Times New Roman&quot; style=&quot;font-size: 15px;&quot;&gt;send&lt;/font&gt;" style="edgeLabel;html=1;align=center;verticalAlign=middle;resizable=0;points=[];" parent="FmmOy0Gf5pX21H7wCrZ3-17" vertex="1" connectable="0">
          <mxGeometry x="-0.2929" y="-3" relative="1" as="geometry">
            <mxPoint x="-2" y="-5" as="offset" />
          </mxGeometry>
        </mxCell>
        <mxCell id="FmmOy0Gf5pX21H7wCrZ3-20" value="" style="curved=1;endArrow=classic;html=1;rounded=0;exitX=0;exitY=0.5;exitDx=0;exitDy=0;entryX=0;entryY=0.5;entryDx=0;entryDy=0;dashed=1;strokeWidth=2;" parent="1" source="FmmOy0Gf5pX21H7wCrZ3-10" target="FmmOy0Gf5pX21H7wCrZ3-5" edge="1">
          <mxGeometry width="50" height="50" relative="1" as="geometry">
            <mxPoint x="300" y="400" as="sourcePoint" />
            <mxPoint x="350" y="350" as="targetPoint" />
            <Array as="points">
              <mxPoint x="190" y="360" />
              <mxPoint x="300" y="200" />
            </Array>
          </mxGeometry>
        </mxCell>
        <mxCell id="FmmOy0Gf5pX21H7wCrZ3-25" value="&lt;font face=&quot;Times New Roman&quot; style=&quot;font-size: 16px;&quot;&gt;申请：拿出首部的Buffer&lt;/font&gt;" style="edgeLabel;html=1;align=center;verticalAlign=middle;resizable=0;points=[];" parent="FmmOy0Gf5pX21H7wCrZ3-20" vertex="1" connectable="0">
          <mxGeometry x="-0.0077" relative="1" as="geometry">
            <mxPoint x="-37" y="5" as="offset" />
          </mxGeometry>
        </mxCell>
        <mxCell id="FmmOy0Gf5pX21H7wCrZ3-26" value="" style="curved=1;endArrow=classic;html=1;rounded=0;exitX=1;exitY=0.5;exitDx=0;exitDy=0;entryX=1;entryY=0.5;entryDx=0;entryDy=0;dashed=1;strokeWidth=2;" parent="1" source="FmmOy0Gf5pX21H7wCrZ3-5" target="FmmOy0Gf5pX21H7wCrZ3-13" edge="1">
          <mxGeometry width="50" height="50" relative="1" as="geometry">
            <mxPoint x="414" y="184.5" as="sourcePoint" />
            <mxPoint x="615" y="477.5" as="targetPoint" />
            <Array as="points">
              <mxPoint x="510" y="200" />
              <mxPoint x="650" y="330" />
            </Array>
          </mxGeometry>
        </mxCell>
        <mxCell id="FmmOy0Gf5pX21H7wCrZ3-28" value="&lt;font face=&quot;Times New Roman&quot; style=&quot;font-size: 16px;&quot;&gt;释放：归还给可用内存&lt;/font&gt;" style="edgeLabel;html=1;align=center;verticalAlign=middle;resizable=0;points=[];" parent="FmmOy0Gf5pX21H7wCrZ3-26" vertex="1" connectable="0">
          <mxGeometry x="0.1648" y="-2" relative="1" as="geometry">
            <mxPoint x="-27" y="-27" as="offset" />
          </mxGeometry>
        </mxCell>
        <mxCell id="lSvtSwzIoLTM8RFcfEQh-1" value="&lt;font face=&quot;Times New Roman&quot; style=&quot;font-size: 16px;&quot;&gt;申请大小(&amp;gt;16k)&lt;br&gt;&lt;/font&gt;" style="rounded=1;whiteSpace=wrap;html=1;fillColor=#b1ddf0;strokeColor=#000000;strokeWidth=2;" vertex="1" parent="1">
          <mxGeometry x="185" y="477.5" width="80" height="49" as="geometry" />
        </mxCell>
        <mxCell id="lSvtSwzIoLTM8RFcfEQh-2" value="&lt;font face=&quot;Times New Roman&quot; style=&quot;font-size: 16px;&quot;&gt;可用内存不足，将free&lt;br&gt;的空余刷新到可用内存中&lt;/font&gt;" style="rounded=1;whiteSpace=wrap;html=1;fillColor=#d5e8d4;strokeColor=#141514;strokeWidth=2;" vertex="1" parent="1">
          <mxGeometry x="-130" y="430" width="200" height="60" as="geometry" />
        </mxCell>
        <mxCell id="lSvtSwzIoLTM8RFcfEQh-3" value="" style="curved=1;endArrow=classic;html=1;rounded=0;exitX=0;exitY=0.5;exitDx=0;exitDy=0;entryX=0.5;entryY=0;entryDx=0;entryDy=0;strokeWidth=2;" edge="1" parent="1" source="FmmOy0Gf5pX21H7wCrZ3-7" target="lSvtSwzIoLTM8RFcfEQh-2">
          <mxGeometry width="50" height="50" relative="1" as="geometry">
            <mxPoint x="180" y="340" as="sourcePoint" />
            <mxPoint x="230" y="290" as="targetPoint" />
            <Array as="points">
              <mxPoint x="120" y="400" />
              <mxPoint x="-30" y="390" />
            </Array>
          </mxGeometry>
        </mxCell>
        <mxCell id="lSvtSwzIoLTM8RFcfEQh-4" value="" style="curved=1;endArrow=classic;html=1;rounded=0;exitX=0.5;exitY=1;exitDx=0;exitDy=0;entryX=0;entryY=0.5;entryDx=0;entryDy=0;strokeWidth=2;" edge="1" parent="1" source="lSvtSwzIoLTM8RFcfEQh-2" target="lSvtSwzIoLTM8RFcfEQh-1">
          <mxGeometry width="50" height="50" relative="1" as="geometry">
            <mxPoint x="180" y="340" as="sourcePoint" />
            <mxPoint x="230" y="290" as="targetPoint" />
            <Array as="points">
              <mxPoint x="-30" y="540" />
              <mxPoint x="110" y="510" />
            </Array>
          </mxGeometry>
        </mxCell>
        <mxCell id="lSvtSwzIoLTM8RFcfEQh-10" value="" style="curved=1;endArrow=classic;html=1;rounded=0;exitX=0;exitY=0.5;exitDx=0;exitDy=0;entryX=0.5;entryY=0;entryDx=0;entryDy=0;strokeWidth=2;dashed=1;" edge="1" parent="1" source="FmmOy0Gf5pX21H7wCrZ3-10" target="lSvtSwzIoLTM8RFcfEQh-1">
          <mxGeometry width="50" height="50" relative="1" as="geometry">
            <mxPoint x="270" y="390" as="sourcePoint" />
            <mxPoint x="320" y="340" as="targetPoint" />
            <Array as="points">
              <mxPoint x="225" y="420" />
              <mxPoint x="210" y="460" />
            </Array>
          </mxGeometry>
        </mxCell>
        <mxCell id="lSvtSwzIoLTM8RFcfEQh-11" value="" style="curved=1;endArrow=classic;html=1;rounded=0;exitX=0;exitY=0.5;exitDx=0;exitDy=0;entryX=1;entryY=0;entryDx=0;entryDy=0;dashed=1;strokeWidth=2;" edge="1" parent="1" source="FmmOy0Gf5pX21H7wCrZ3-14" target="lSvtSwzIoLTM8RFcfEQh-1">
          <mxGeometry width="50" height="50" relative="1" as="geometry">
            <mxPoint x="270" y="390" as="sourcePoint" />
            <mxPoint x="320" y="340" as="targetPoint" />
            <Array as="points">
              <mxPoint x="340" y="420" />
              <mxPoint x="310" y="460" />
            </Array>
          </mxGeometry>
        </mxCell>
      </root>
    </mxGraphModel>
  </diagram>
</mxfile>
